<svg id="visual" viewBox="0 0 1920 1080" width="1920" height="1080" xmlns="http://www.w3.org/2000/svg" xmlns:xlink="http://www.w3.org/1999/xlink" version="1.1"><rect x="0" y="0" width="1920" height="1080" fill="#5885bd"></rect><defs><linearGradient id="grad1_0" x1="43.8%" y1="0%" x2="100%" y2="100%"><stop offset="14.444444444444446%" stop-color="#c5daf2" stop-opacity="1"></stop><stop offset="85.55555555555554%" stop-color="#c5daf2" stop-opacity="1"></stop></linearGradient></defs><defs><linearGradient id="grad1_1" x1="43.8%" y1="0%" x2="100%" y2="100%"><stop offset="14.444444444444446%" stop-color="#c5daf2" stop-opacity="1"></stop><stop offset="85.55555555555554%" stop-color="#5885bd" stop-opacity="1"></stop></linearGradient></defs><defs><linearGradient id="grad2_0" x1="0%" y1="0%" x2="56.3%" y2="100%"><stop offset="14.444444444444446%" stop-color="#c5daf2" stop-opacity="1"></stop><stop offset="85.55555555555554%" stop-color="#c5daf2" stop-opacity="1"></stop></linearGradient></defs><defs><linearGradient id="grad2_1" x1="0%" y1="0%" x2="56.3%" y2="100%"><stop offset="14.444444444444446%" stop-color="#5885bd" stop-opacity="1"></stop><stop offset="85.55555555555554%" stop-color="#c5daf2" stop-opacity="1"></stop></linearGradient></defs><g transform="translate(1920, 0)"><path d="M0 648C-92 647.5 -184.1 647.1 -248 598.7C-311.9 550.3 -347.7 453.9 -382.5 382.5C-417.3 311.2 -451.1 264.7 -495.2 205.1C-539.3 145.5 -593.6 72.8 -648 0L0 0Z" fill="#8eafd7"></path><path d="M0 324C-46 323.8 -92 323.5 -124 299.3C-156 275.1 -173.9 227 -191.3 191.3C-208.7 155.6 -225.6 132.4 -247.6 102.6C-269.6 72.8 -296.8 36.4 -324 0L0 0Z" fill="#c5daf2"></path></g><g transform="translate(0, 1080)"><path d="M0 -648C59 -582.8 117.9 -517.6 206.3 -498C294.6 -478.3 412.3 -504.1 458.2 -458.2C504.1 -412.3 478.3 -294.6 498 -206.3C517.6 -117.9 582.8 -59 648 0L0 0Z" fill="#8eafd7"></path><path d="M0 -324C29.5 -291.4 59 -258.8 103.1 -249C147.3 -239.1 206.1 -252.1 229.1 -229.1C252.1 -206.1 239.1 -147.3 249 -103.1C258.8 -59 291.4 -29.5 324 0L0 0Z" fill="#c5daf2"></path></g></svg>